<svg width="2880" height="602" viewBox="0 0 2880 602" fill="none" xmlns="http://www.w3.org/2000/svg">
<g clip-path="url(#clip0_5948_57)">
<path d="M1523.85 183.277C1516.56 154.098 1489.94 148.718 1470.33 148.718C1440.68 148.765 1416.65 164.978 1416.71 194.548L1416.87 231.317V416.762C1416.87 417.847 1417.05 418.928 1417.3 419.926V425.563C1417.35 452.837 1439.9 485.267 1466.35 487.436C1468.56 487.61 1470.81 487.61 1473.11 487.521C1502.54 486.308 1524.1 454.917 1524.02 425.346L1523.72 348.646V286.642C1524.23 283.087 1524.54 279.618 1524.54 276.322L1523.72 224.639V210.983C1523.72 210.55 1523.62 210.116 1523.59 209.681C1523.89 200.705 1525.76 190.689 1523.89 183.277H1523.85ZM1904.57 182.842C1897.46 153.662 1871.47 148.286 1852.34 148.329C1829.39 148.373 1809.95 158.647 1802.86 177.595C1800.18 184.576 1790.01 187.481 1783.68 182.235C1761.78 164.198 1734.71 152.882 1704.58 152.882C1631.72 152.274 1562.56 214.796 1562.56 307.629C1562.56 400.459 1632.33 459.339 1704.58 459.339C1733.28 459.339 1759.79 448.76 1781.57 431.503C1787.86 426.517 1798.06 430.679 1798.06 438.7C1798.06 492.725 1769.55 506.643 1719.75 506.643C1718.16 506.643 1716.71 506.686 1715.41 506.816C1693.96 504.476 1668.59 500.01 1668.59 500.01C1629.56 496.585 1604.59 512.367 1599.99 535.128H1600.03C1599.64 537.037 1599.38 538.988 1599.2 540.983C1597.25 566.651 1638.41 583.473 1656.71 589.761C1675 596.048 1707.48 603.072 1731.47 600.557C1732.59 600.426 1733.52 600.253 1734.28 600.038C1855.6 597.132 1904.87 544.757 1904.87 434.495C1904.87 400.502 1905.43 283.348 1905.45 199.62C1905.45 197.93 1905.38 196.196 1905.25 194.462C1905.45 190.256 1905.43 186.266 1904.59 182.801L1904.57 182.842ZM1736.7 367.765C1703.32 367.765 1675.39 342.271 1675.39 307.672C1675.39 273.072 1702.71 245.756 1736.7 245.756C1770.72 245.756 1799.23 273.072 1799.23 307.672C1799.23 342.271 1770.1 367.765 1736.7 367.765ZM1014.44 341.665V268.822C1014.44 199.014 971.94 156.568 911.9 156.568C873.91 156.568 848.24 173.909 832.24 191.99C824.95 200.273 809.34 199.62 802.45 191.08C784.49 168.881 757.88 156.568 727.39 156.568C698.85 156.568 676.7 168.275 660.7 182.583C653.76 188.783 640.23 185.313 637.46 177.077C637.37 176.816 636.98 176.296 636.38 175.688C634.55 171.828 632.13 168.403 629.26 165.326C629.05 164.804 628.74 164.415 628.22 164.198C618.34 154.269 603.38 148.764 586.64 148.764C556.98 148.804 532.96 165.022 533 194.593L533.13 225.117V341.578C533.13 342.489 533 343.356 533 344.266L533.13 374.788V376.352C533.13 376.352 533.13 376.395 533.13 376.438L533.34 426.299C533.34 453.574 556.12 486.004 582.7 488.217C584.9 488.39 587.2 488.39 589.5 488.303C619.11 487.088 640.83 455.696 640.76 426.126L640.54 371.886V296.269C640.54 270.167 655.71 251.349 681.21 251.349C705.49 251.349 719.46 266.525 719.46 301.731V343.962C719.46 343.962 719.46 344.136 719.46 344.266V347.518V376.352C719.46 376.783 719.54 377.219 719.59 377.651L719.8 426.256C719.8 453.53 742.56 485.96 769.18 488.173C771.4 488.347 773.7 488.347 776 488.26C805.61 487.045 827.33 455.653 827.25 426.083L826.9 345.957V301.774C826.9 264.141 846.93 251.393 868.18 251.393C892.45 251.393 906.43 266.568 906.43 301.774V341.274C906.38 342.271 906.3 343.269 906.3 344.266L906.64 426.256C906.64 453.53 929.58 486.004 956.41 488.173C958.68 488.347 960.97 488.347 963.27 488.26C993.15 487.045 1015.01 455.653 1014.92 426.083L1014.56 344.093C1014.56 343.313 1014.48 342.575 1014.44 341.796V341.665ZM2280.87 402.063C2287.39 423.438 2260.38 442.342 2246.41 451.231C2234.07 459.078 2209.2 473.777 2189.58 478.806C2171.75 484.661 2151.84 488.303 2129.51 488.303C2007.54 488.303 1938.34 418.279 1938.34 319.118C1938.34 219.957 2008.13 149.933 2111.93 149.933C2205.4 149.933 2276.38 221.173 2276.38 320.334V337.414C2276.38 344.742 2270.56 350.682 2263.38 350.682H2064.83C2056.38 350.682 2050.06 358.92 2053.94 366.596C2066.96 392.524 2094.14 403.97 2132.54 403.97C2140.01 403.97 2147.04 404.319 2153.68 404.707C2175.09 403.797 2204.91 386.542 2215.64 380.861C2247.32 370.369 2271.04 378.909 2279.17 397.248C2279.83 398.768 2280.44 400.415 2280.93 402.063H2280.87ZM2045.49 285.604H2149.71C2158.36 285.604 2164.64 277.104 2160.66 269.298C2150.02 248.575 2131.54 237.256 2105.58 237.256C2073.44 237.256 2053.98 254.601 2045.49 285.557V285.604ZM1468.25 7.63C1435.01 7.674 1408.07 29.528 1408.12 56.41L1408.5 60.009C1408.5 84.809 1434 124.959 1463.84 126.91C1466.32 127.041 1468.91 127.084 1471.47 126.998C1504.68 125.869 1529 86.717 1528.96 59.835L1528.57 56.236C1528.48 29.354 1501.52 7.63 1468.25 7.63ZM2879.67 205.821C2878.79 185.747 2854.41 170.009 2831.19 164.329L2831.27 163.807C2824.08 163.807 2818.25 157.998 2818.25 150.8V78.522C2818.25 78.522 2818.23 78.218 2818.23 78.044C2818.31 77.177 2818.39 76.266 2818.39 75.356C2818.39 53.893 2794.32 36.464 2764.67 36.464C2735.01 36.464 2710.94 53.893 2710.94 75.356C2710.94 75.486 2710.94 75.66 2710.94 75.79C2710.81 76.484 2710.78 77.177 2710.78 77.873V150.8C2710.78 157.998 2704.95 163.807 2697.77 163.807V164.111C2674.6 169.357 2647.57 185.79 2645.95 204.522H2645.98C2645.83 206.429 2645.77 208.382 2645.85 210.332C2646.77 231.361 2673.58 247.708 2697.77 252.562V253.647C2704.95 253.647 2710.78 259.455 2710.78 266.652V335.596C2710.37 338.154 2710.12 340.796 2710.12 343.486L2710.47 425.477C2710.47 452.748 2733.35 485.224 2760.1 487.393C2762.33 487.566 2764.67 487.566 2766.97 487.477C2796.76 486.265 2818.56 454.874 2818.54 425.303L2818.19 347.473V253.603C2842.63 251.393 2877.64 232.964 2879.48 211.589H2879.43C2879.61 209.681 2879.67 207.729 2879.59 205.78L2879.67 205.821ZM251.89 0C109.84 0 0 106.793 0 240.335C0 373.88 111.09 481.886 251.89 481.886C392.68 481.886 503.17 373.88 503.17 240.335C503.17 107.397 393.9 0 251.89 0ZM251.89 373.835C175.4 373.835 118.34 314.954 118.34 240.898C118.34 166.842 176.62 107.962 251.89 107.962C327.17 107.962 384.79 166.842 384.79 240.898C384.79 314.954 328.33 373.835 251.89 373.835ZM1369.53 268.865C1369.53 199.102 1321.56 156.609 1262.11 156.609C1228.33 156.609 1201.76 168.621 1182.89 183.059C1177.34 187.308 1168.97 185.747 1164.73 180.977C1163.99 179.895 1163.31 178.767 1162.6 177.595C1162.6 177.595 1162.6 177.595 1162.6 177.552C1154.93 164.676 1148.04 148.849 1113.64 148.764C1083.99 148.804 1059.97 165.022 1060.01 194.593V202.961V376.308C1060.01 376.958 1060.1 377.566 1060.19 378.172L1060.41 426.17C1060.41 453.444 1083.25 485.92 1109.97 488.086C1112.17 488.26 1114.47 488.26 1116.77 488.173C1146.51 486.958 1168.29 455.566 1168.2 425.995L1167.99 376.308C1167.99 376.308 1167.99 376.264 1167.99 376.221V296.137C1167.99 270.037 1191.66 251.825 1215.93 251.825C1242.65 251.825 1262.08 265.789 1262.08 301.6V376.221C1262.08 376.74 1262.17 377.262 1262.24 377.781L1262.47 426.126C1262.47 453.399 1285.18 485.83 1311.77 488.043C1313.98 488.216 1316.28 488.217 1318.57 488.129C1348.15 486.915 1369.82 455.525 1369.79 425.952L1369.56 373.141V268.822L1369.53 268.865ZM2627.38 268.865C2627.38 199.102 2579.41 156.609 2519.98 156.609C2486.2 156.609 2459.63 168.621 2440.76 183.059C2433.1 188.955 2419.86 183.84 2419.86 174.127C2419.86 172.956 2417.87 168.968 2414.96 166.324C2405.17 155.136 2389.37 148.764 2371.47 148.764C2341.8 148.804 2317.78 165.022 2317.83 194.593V202.961V376.308C2317.83 376.958 2317.93 377.566 2318.01 378.172L2318.24 426.17C2318.24 453.444 2341.08 485.92 2367.78 488.086C2369.99 488.26 2372.29 488.26 2374.58 488.173C2404.32 486.958 2426.1 455.566 2426.02 425.995L2425.79 376.308C2425.79 376.308 2425.79 376.264 2425.79 376.221V296.137C2425.79 270.037 2449.48 251.825 2473.76 251.825C2500.48 251.825 2519.9 265.789 2519.9 301.6V376.221C2519.9 376.74 2519.98 377.262 2520.08 377.781L2520.29 426.126C2520.29 453.399 2543.01 485.83 2569.58 488.043C2571.8 488.216 2574.1 488.217 2576.4 488.129C2605.96 486.915 2627.66 455.525 2627.6 425.952L2627.38 373.141V268.822V268.865Z" fill="black"/>
</g>
<defs>
<clipPath id="clip0_5948_57">
<rect width="2879.67" height="601.081" fill="white"/>
</clipPath>
</defs>
</svg>
